# File created by Blade
# Date/Time:  Thu Jan 22 16:16:16 2015
#---------------------------------------------------------
:version 1.10
:name HOM
:units
  mass 1.0
  length 1.000000
  angle deg
:documentation
     Acclaim Skeleton File
:root
   axis xyz
   order TX TY TZ RX RY RZ
   position 0.000000 0.000000 0.000000
   orientation 0 0 0
:bonedata
   begin
      id 1
      name RightUpLeg_dum
      direction -1.000000 0.000000 0.000000
      length 3.766986
      axis 0.0 0.0 0.0 xyz
   end
   begin
      id 2
      name LeftUpLeg_dum
      direction 1.000000 0.000000 0.000000
      length 3.766986
      axis 0.0 0.0 0.0 xyz
   end
   begin
      id 3
      name Spine_dum
      direction 0.000000 1.000000 0.000000
      length 7.779697
      axis 0.0 0.0 0.0 xyz
   end
   begin
      id 4
      name RightUpLeg
      direction 0.000000 -1.000000 0.000000
      length 18.017682
      axis 0.0 0.0 0.0 xyz
      dof rx ry rz
   end
   begin
      id 5
      name RightLeg
      direction 0.000000 -1.000000 0.000000
      length 16.881075
      axis 0.0 0.0 0.0 xyz
      dof rx ry rz
   end
   begin
      id 6
      name RightFoot
      direction 0.000000 -0.258819 0.965926
      length 5.770812
      axis 15.0 0.0 0.0 xyz
      dof rx ry rz
   end
   begin
      id 7
      name RightToeBase
      direction 0.000000 0.000000 1.000000
      length 2.952750
      axis 0.0 0.0 0.0 xyz
      dof rx ry rz
   end
   begin
      id 8
      name LeftUpLeg
      direction 0.000000 -1.000000 0.000000
      length 18.017682
      axis 0.0 0.0 0.0 xyz
      dof rx ry rz
   end
   begin
      id 9
      name LeftLeg
      direction 0.000000 -1.000000 0.000000
      length 16.881075
      axis 0.0 0.0 0.0 xyz
      dof rx ry rz
   end
   begin
      id 10
      name LeftFoot
      direction 0.000000 -0.258819 0.965926
      length 5.770812
      axis 15.0 0.0 0.0 xyz
      dof rx ry rz
   end
   begin
      id 11
      name LeftToeBase
      direction 0.000000 0.000000 1.000000
      length 2.952750
      axis 0.0 0.0 0.0 xyz
      dof rx ry rz
   end
   begin
      id 12
      name Spine
      direction 0.000000 1.000000 0.000000
      length 0.000000
      axis 0.0 0.0 0.0 xyz
      dof rx ry rz
   end
   begin
      id 13
      name Spine_dum1
      direction 0.000000 1.000000 0.000000
      length 10.941760
      axis 0.0 0.0 0.0 xyz
   end
   begin
      id 14
      name Spine_dum2
      direction 0.000000 1.000000 0.000000
      length 10.941760
      axis 0.0 0.0 0.0 xyz
   end
   begin
      id 15
      name Spine_dum3
      direction 0.000000 1.000000 0.000000
      length 16.646042
      axis 0.0 0.0 0.0 xyz
   end
   begin
      id 16
      name RightShoulder
      direction -1.000000 0.000000 0.000000
      length 7.708937
      axis 0.0 0.0 90.0 xyz
      dof rx ry rz
   end
   begin
      id 17
      name RightArm
      direction -1.000000 0.000000 0.000000
      length 11.521345
      axis 0.0 0.0 90.0 xyz
      dof rx ry rz
   end
   begin
      id 18
      name RightForeArm
      direction -1.000000 0.000000 0.000000
      length 10.175898
      axis 0.0 0.0 90.0 xyz
      dof ry rz rx
   end
   begin
      id 19
      name RightHand
      direction -1.000000 0.000000 0.000000
      length 0.000000
      axis 0.0 0.0 90.0 xyz
      dof rx ry rz
   end
   begin
      id 20
      name RightHand_dum1
      direction -1.000000 0.000000 0.000000
      length 3.937000
      axis 0.0 0.0 90.0 xyz
   end
   begin
      id 21
      name RightHand_dum2
      direction 0.000000 0.000000 0.000000
      length 0.000000
      axis 0.0 0.0 90.0 xyz
   end
   begin
      id 22
      name RightHandThumb1
      direction 0.000000 0.000000 1.000000
      length 3.937000
      axis 0.0 0.0 90.0 xyz
      dof rx rz ry
   end
   begin
      id 23
      name LeftShoulder
      direction 1.000000 0.000000 0.000000
      length 7.708937
      axis 0.0 0.0 -90.0 xyz
      dof rx ry rz
   end
   begin
      id 24
      name LeftArm
      direction 1.000000 0.000000 0.000000
      length 11.521345
      axis 0.0 0.0 -90.0 xyz
      dof rx ry rz
   end
   begin
      id 25
      name LeftForeArm
      direction 1.000000 0.000000 0.000000
      length 10.175898
      axis 0.0 0.0 -90.0 xyz
      dof ry rz rx
   end
   begin
      id 26
      name LeftHand
      direction 1.000000 0.000000 0.000000
      length 0.000000
      axis 0.0 0.0 -90.0 xyz
      dof rx ry rz
   end
   begin
      id 27
      name LeftHand_dum1
      direction 1.000000 0.000000 0.000000
      length 3.937000
      axis 0.0 0.0 -90.0 xyz
   end
   begin
      id 28
      name LeftHand_dum2
      direction 0.000000 0.000000 0.000000
      length 0.000000
      axis 0.0 0.0 -90.0 xyz
   end
   begin
      id 29
      name LeftHandThumb1
      direction 0.000000 0.000000 1.000000
      length 3.937000
      axis 0.0 0.0 -90.0 xyz
      dof rx rz ry
   end
   begin
      id 30
      name Head
      direction 0.000000 1.000000 0.000000
      length 4.527550
      axis 0.0 0.0 0.0 xyz
      dof rx ry rz
   end
:hierarchy
   begin
      root RightUpLeg_dum LeftUpLeg_dum Spine_dum
      RightUpLeg_dum RightUpLeg
      LeftUpLeg_dum LeftUpLeg
      Spine_dum Spine
      RightUpLeg RightLeg
      RightLeg RightFoot
      RightFoot RightToeBase
      LeftUpLeg LeftLeg
      LeftLeg LeftFoot
      LeftFoot LeftToeBase
      Spine Spine_dum1 Spine_dum2 Spine_dum3
      Spine_dum1 RightShoulder
      Spine_dum2 LeftShoulder
      Spine_dum3 Head
      RightShoulder RightArm
      RightArm RightForeArm
      RightForeArm RightHand
      RightHand RightHand_dum1 RightHand_dum2
      RightHand_dum2 RightHandThumb1
      LeftShoulder LeftArm
      LeftArm LeftForeArm
      LeftForeArm LeftHand
      LeftHand LeftHand_dum1 LeftHand_dum2
      LeftHand_dum2 LeftHandThumb1
   end

# File created by Blade
# Date/Time:  Thu Jan 22 16:16:06 2015
# Frame Rate: 120.000 fps
#------------------------------------------------------
:FULLY-SPECIFIED
:DEGREES
258
root 1.396177 34.712144 -0.268575 1.457834 -1.757666 2.917913
RightUpLeg 5.053578 -10.788643 -25.280886
RightLeg -5.104537 -0.000000 0.000000
RightFoot -5.779078 -18.503309 32.489739
RightToeBase 14.408150 -0.000000 -0.000000
LeftUpLeg 4.325374 7.066170 19.112596
LeftLeg -3.164187 -0.000000 0.000000
LeftFoot -3.292400 9.386839 -34.243582
LeftToeBase 9.610507 -0.000000 -0.000000
Spine 11.780954 -5.919454 -1.163331
RightShoulder -5.200572 -13.981323 -21.008621
RightArm 10.215397 25.902220 46.567579
RightForeArm 2.629372 0.000000 20.528844
RightHand 5.563095 0.000000 -7.611850
RightHandThumb1 -24.326973 -0.000000 -32.862282
LeftShoulder -23.930229 32.431258 12.844220
LeftArm 53.756575 -48.193774 -72.147372
LeftForeArm 37.833538 0.000000 9.175021
LeftHand -22.622470 -0.000000 4.412695
LeftHandThumb1 -26.253704 0.000000 33.147579
Head -2.137388 11.067212 5.983816
259
root 1.385682 34.706118 -0.302305 1.499256 -1.683692 2.964081
RightUpLeg 5.144556 -10.833176 -25.321977
RightLeg -5.374002 -0.000000 0.000000
RightFoot -5.728643 -18.535517 32.601771
RightToeBase 14.482569 -0.000000 -0.000000
LeftUpLeg 4.185840 6.861746 19.066199
LeftLeg -3.133680 -0.000000 0.000000
LeftFoot -3.349417 9.509705 -34.262339
LeftToeBase 9.625690 -0.000000 -0.000000
Spine 11.861472 -6.089715 -1.309013
RightShoulder -5.215385 -14.018296 -20.935965
RightArm 10.259586 25.886576 46.619870
RightForeArm 2.678777 -0.000000 20.618407
RightHand 5.687699 -0.000000 -7.661144
RightHandThumb1 -24.326973 -0.000000 -32.862282
LeftShoulder -23.899350 32.396975 12.915830
LeftArm 53.759916 -48.068607 -71.905552
LeftForeArm 37.976446 -0.000000 9.266440
LeftHand -22.654426 -0.000000 4.285922
LeftHandThumb1 -26.253704 0.000000 33.147579
Head -2.098287 11.135325 6.057609
260
root 1.373714 34.701048 -0.333998 1.530942 -1.612086 3.022877
RightUpLeg 5.246268 -10.974429 -25.380316
RightLeg -5.639681 -0.000000 0.000000
RightFoot -5.606045 -18.487427 32.638751
RightToeBase 14.462831 -0.000000 -0.000000
LeftUpLeg 4.046706 6.711252 19.014404
LeftLeg -3.077701 -0.000000 0.000000
LeftFoot -3.373572 9.574145 -34.312665
LeftToeBase 9.635028 -0.000000 -0.000000
Spine 11.949022 -6.250905 -1.451690
RightShoulder -5.245523 -14.047359 -20.880135
RightArm 10.297707 25.855443 46.640621
RightForeArm 2.526780 0.000000 20.682923
RightHand 5.846263 -0.000000 -7.761009
RightHandThumb1 -24.326973 -0.000000 -32.862282
LeftShoulder -23.865923 32.413060 12.957129
LeftArm 53.814760 -47.939628 -71.676712
LeftForeArm 38.062498 0.000000 9.362338
LeftHand -22.507980 -0.000000 4.188209
LeftHandThumb1 -26.253704 0.000000 33.147579
Head -2.060766 11.202283 6.123263
261
root 1.359382 34.697831 -0.366486 1.579424 -1.574638 3.045289
RightUpLeg 5.309380 -11.058975 -25.383978
RightLeg -5.903208 -0.000000 0.000000
RightFoot -5.444143 -18.504995 32.606658
RightToeBase 14.385653 -0.000000 -0.000000
LeftUpLeg 3.910734 6.576934 19.001059
LeftLeg -3.028641 -0.000000 0.000000
LeftFoot -3.412890 9.653500 -34.342580
LeftToeBase 9.725634 -0.000000 -0.000000
Spine 12.021543 -6.384865 -1.527416
RightShoulder -5.286364 -14.095674 -20.833112
RightArm 10.382475 25.778274 46.597758
RightForeArm 2.553960 0.000000 20.739815
RightHand 5.844912 -0.000000 -7.745685
RightHandThumb1 -24.326973 -0.000000 -32.862282
LeftShoulder -23.819689 32.432038 12.976948
LeftArm 53.868773 -47.812646 -71.438444
LeftForeArm 38.180258 0.000000 9.444278
LeftHand -22.406111 -0.000000 4.021380
LeftHandThumb1 -26.253704 0.000000 33.147579
Head -2.000124 11.234654 6.176044
262
root 1.344015 34.695698 -0.404733 1.670609 -1.573106 3.047953
RightUpLeg 5.305484 -11.067519 -25.347795
RightLeg -6.164499 -0.000000 0.000000
RightFoot -5.370595 -18.567036 32.667975
RightToeBase 14.539356 -0.000000 -0.000000
LeftUpLeg 3.737493 6.521008 19.003986
LeftLeg -2.971686 -0.000000 0.000000
LeftFoot -3.429981 9.726152 -34.346146
LeftToeBase 9.731817 -0.000000 -0.000000
Spine 12.057122 -6.498547 -1.553642
RightShoulder -5.337602 -14.098606 -20.826353
RightArm 10.478329 25.683284 46.535098
RightForeArm 2.472531 -0.000000 20.751869
RightHand 5.898598 -0.000000 -7.726314
RightHandThumb1 -24.326973 -0.000000 -32.862282
LeftShoulder -23.732152 32.342320 13.034527
LeftArm 53.670041 -47.611179 -70.954951
LeftForeArm 38.191740 -0.000000 9.500506
LeftHand -22.202639 0.000000 4.005550
LeftHandThumb1 -26.253704 0.000000 33.147579
Head -1.967941 11.320664 6.194803
263
root 1.327236 34.695050 -0.441513 1.743117 -1.593928 3.028997
RightUpLeg 5.283797 -11.129704 -25.292147
RightLeg -6.381580 -0.000000 0.000000
RightFoot -5.242618 -18.558345 32.692894
RightToeBase 14.528523 -0.000000 -0.000000
LeftUpLeg 3.583080 6.572711 19.034783
LeftLeg -2.891180 -0.000000 0.000000
LeftFoot -3.419478 9.714807 -34.343504
LeftToeBase 9.742045 -0.000000 -0.000000
Spine 12.106698 -6.623845 -1.533898
RightShoulder -5.329414 -14.084537 -20.859646
RightArm 10.524024 25.589386 46.422185
RightForeArm 2.460647 -0.000000 20.787670
RightHand 5.990001 -0.000000 -7.695177
RightHandThumb1 -24.326973 -0.000000 -32.862282
LeftShoulder -23.662677 32.281868 13.058276
LeftArm 53.564664 -47.448083 -70.590125
LeftForeArm 38.350787 -0.000000 9.548570
LeftHand -22.201541 0.000000 4.049232
LeftHandThumb1 -26.253704 0.000000 33.147579
Head -1.904791 11.421043 6.182662
264
root 1.312429 34.694051 -0.477983 1.816426 -1.652506 3.011031
RightUpLeg 5.224442 -11.174420 -25.235608
RightLeg -6.569316 -0.000000 0.000000
RightFoot -5.126445 -18.540208 32.686835
RightToeBase 14.504187 -0.000000 -0.000000
LeftUpLeg 3.475907 6.701032 19.064594
LeftLeg -2.876515 -0.000000 0.000000
LeftFoot -3.355964 9.698415 -34.307143
LeftToeBase 9.779922 -0.000000 -0.000000
Spine 12.150012 -6.727729 -1.499882
RightShoulder -5.290272 -14.035486 -20.919415
RightArm 10.539829 25.520281 46.265717
RightForeArm 2.400560 -0.000000 20.827209
RightHand 5.994862 -0.000000 -7.654026
RightHandThumb1 -24.326973 -0.000000 -32.862282
LeftShoulder -23.627631 32.293182 13.040342
LeftArm 53.600661 -47.301408 -70.338278
LeftForeArm 38.445283 0.000000 9.589394
LeftHand -22.054803 -0.000000 4.042184
LeftHandThumb1 -26.253704 0.000000 33.147579
Head -1.829293 11.471389 6.151168
265
root 1.298371 34.693551 -0.518604 1.906810 -1.755078 2.974663
RightUpLeg 5.091781 -11.167483 -25.148194
RightLeg -6.705737 -0.000000 0.000000
RightFoot -4.983263 -18.555822 32.619449
RightToeBase 14.486218 -0.000000 -0.000000
LeftUpLeg 3.366584 6.876007 19.105348
LeftLeg -2.864356 -0.000000 0.000000
LeftFoot -3.317761 9.702927 -34.260309
LeftToeBase 9.797384 -0.000000 -0.000000
Spine 12.181354 -6.778545 -1.416672
RightShoulder -5.246474 -13.988207 -21.000418
RightArm 10.526693 25.475923 46.083921
RightForeArm 2.328052 -0.000000 20.885233
RightHand 5.873362 -0.000000 -7.612893
RightHandThumb1 -24.326973 -0.000000 -32.862282
LeftShoulder -23.531913 32.202778 13.086853
LeftArm 53.531482 -47.139563 -70.033418
LeftForeArm 38.630090 0.000000 9.611538
LeftHand -21.892151 -0.000000 3.901466
LeftHandThumb1 -26.253704 0.000000 33.147579
Head -1.750440 11.516070 6.100995
266
root 1.284133 34.694100 -0.559107 1.987019 -1.886331 2.907902
RightUpLeg 4.931087 -11.179722 -25.028231
RightLeg -6.803796 -0.000000 0.000000
RightFoot -4.886329 -18.471455 32.609760
RightToeBase 14.452131 -0.000000 -0.000000
LeftUpLeg 3.305904 7.059000 19.179800
LeftLeg -2.900846 -0.000000 0.000000
LeftFoot -3.263759 9.716463 -34.224142
LeftToeBase 9.838482 -0.000000 -0.000000
Spine 12.233817 -6.796109 -1.259861
RightShoulder -5.240876 -13.963518 -21.105180
RightArm 10.588439 25.482274 45.896753
RightForeArm 2.301854 -0.000000 20.901843
RightHand 6.028130 -0.000000 -7.706393
RightHandThumb1 -24.326973 -0.000000 -32.862282
LeftShoulder -23.484798 32.179677 13.043694
LeftArm 53.664207 -46.971624 -69.844394
LeftForeArm 38.697347 -0.000000 9.576374
LeftHand -21.726492 -0.000000 3.985900
LeftHandThumb1 -26.253704 0.000000 33.147579
Head -1.684236 11.569255 5.986099
267
root 1.271163 34.695201 -0.596970 2.029589 -2.041872 2.854106
RightUpLeg 4.764692 -11.165271 -24.932932
RightLeg -6.834352 -0.000000 0.000000
RightFoot -4.774822 -18.384906 32.563709
RightToeBase 14.462782 -0.000000 -0.000000
LeftUpLeg 3.294255 7.289744 19.241550
LeftLeg -2.934971 -0.000000 0.000000
LeftFoot -3.196911 9.709573 -34.159811
LeftToeBase 9.881348 -0.000000 -0.000000
Spine 12.338112 -6.830902 -1.116257
RightShoulder -5.162959 -13.781651 -21.249900
RightArm 10.472185 25.330650 45.606915
RightForeArm 2.345908 -0.000000 20.964785
RightHand 6.158366 -0.000000 -7.957132
RightHandThumb1 -24.326973 -0.000000 -32.862282
LeftShoulder -23.376823 32.076631 13.052726
LeftArm 53.544539 -46.834738 -69.495703
LeftForeArm 38.746793 -0.000000 9.606564
LeftHand -21.598006 -0.000000 3.811817
LeftHandThumb1 -26.253704 0.000000 33.147579
Head -1.636211 11.640508 5.894219
268
root 1.257971 34.697353 -0.642776 2.096955 -2.215892 2.796371
RightUpLeg 4.533536 -11.104003 -24.821402
RightLeg -6.826778 -0.000000 0.000000
RightFoot -4.686198 -18.336718 32.512485
RightToeBase 14.452421 -0.000000 -0.000000
LeftUpLeg 3.244200 7.570712 19.303790
LeftLeg -2.957155 -0.000000 0.000000
LeftFoot -3.105610 9.706210 -34.079783
LeftToeBase 9.937862 -0.000000 -0.000000
Spine 12.429760 -6.844540 -0.949272
RightShoulder -5.089912 -13.762159 -21.426001
RightArm 10.513847 25.463026 45.470933
RightForeArm 2.202178 -0.000000 21.044030
RightHand 6.203076 -0.000000 -8.120804
RightHandThumb1 -24.326973 -0.000000 -32.862282
LeftShoulder -23.248868 31.980449 13.084244
LeftArm 53.486443 -46.709635 -69.224220
LeftForeArm 38.733170 -0.000000 9.604350
LeftHand -21.404564 0.000000 3.658355
LeftHandThumb1 -26.253704 0.000000 33.147579
Head -1.588101 11.594473 5.773207
